<mxfile host="app.diagrams.net" modified="2024-06-17T15:11:53.778Z" agent="Mozilla/5.0 (Windows NT 10.0; Win64; x64) AppleWebKit/537.36 (KHTML, like Gecko) Chrome/125.0.0.0 Safari/537.36" etag="aK1BLk3_I0_HCRn4Nr3S" version="24.5.4" type="github">
  <diagram name="第 1 页" id="sJykEnjaN0Jk8-Dz0L-P">
    <mxGraphModel dx="1235" dy="1014" grid="1" gridSize="10" guides="1" tooltips="1" connect="1" arrows="1" fold="1" page="0" pageScale="1" pageWidth="827" pageHeight="1169" math="0" shadow="0">
      <root>
        <mxCell id="0" />
        <mxCell id="1" parent="0" />
        <mxCell id="d8VbLwfGK2NLZ984nXob-2" value="id" style="ellipse;whiteSpace=wrap;html=1;" vertex="1" parent="1">
          <mxGeometry x="120" y="80" width="60" height="40" as="geometry" />
        </mxCell>
        <mxCell id="d8VbLwfGK2NLZ984nXob-4" value="学生" style="rounded=0;whiteSpace=wrap;html=1;" vertex="1" parent="1">
          <mxGeometry x="224" y="200" width="70" height="40" as="geometry" />
        </mxCell>
        <mxCell id="d8VbLwfGK2NLZ984nXob-9" style="rounded=0;orthogonalLoop=1;jettySize=auto;html=1;exitX=1;exitY=1;exitDx=0;exitDy=0;entryX=0;entryY=0.25;entryDx=0;entryDy=0;endArrow=none;endFill=0;" edge="1" parent="1" source="d8VbLwfGK2NLZ984nXob-8" target="d8VbLwfGK2NLZ984nXob-4">
          <mxGeometry relative="1" as="geometry">
            <mxPoint x="150" y="200" as="targetPoint" />
          </mxGeometry>
        </mxCell>
        <mxCell id="d8VbLwfGK2NLZ984nXob-8" value="姓名" style="ellipse;whiteSpace=wrap;html=1;" vertex="1" parent="1">
          <mxGeometry x="60" y="130" width="60" height="40" as="geometry" />
        </mxCell>
        <mxCell id="d8VbLwfGK2NLZ984nXob-11" style="rounded=0;orthogonalLoop=1;jettySize=auto;html=1;exitX=1;exitY=0.5;exitDx=0;exitDy=0;entryX=0;entryY=0.5;entryDx=0;entryDy=0;endArrow=none;endFill=0;" edge="1" parent="1" source="d8VbLwfGK2NLZ984nXob-10" target="d8VbLwfGK2NLZ984nXob-4">
          <mxGeometry relative="1" as="geometry">
            <mxPoint x="180" y="230" as="targetPoint" />
          </mxGeometry>
        </mxCell>
        <mxCell id="d8VbLwfGK2NLZ984nXob-10" value="密码" style="ellipse;whiteSpace=wrap;html=1;" vertex="1" parent="1">
          <mxGeometry x="50" y="190" width="60" height="40" as="geometry" />
        </mxCell>
        <mxCell id="d8VbLwfGK2NLZ984nXob-15" style="rounded=0;orthogonalLoop=1;jettySize=auto;html=1;exitX=1;exitY=1;exitDx=0;exitDy=0;entryX=0.25;entryY=0;entryDx=0;entryDy=0;endArrow=none;endFill=0;" edge="1" parent="1" source="d8VbLwfGK2NLZ984nXob-2" target="d8VbLwfGK2NLZ984nXob-4">
          <mxGeometry relative="1" as="geometry">
            <mxPoint x="270" y="120" as="targetPoint" />
          </mxGeometry>
        </mxCell>
        <mxCell id="d8VbLwfGK2NLZ984nXob-17" style="rounded=0;orthogonalLoop=1;jettySize=auto;html=1;exitX=0.5;exitY=1;exitDx=0;exitDy=0;entryX=0.5;entryY=0;entryDx=0;entryDy=0;endArrow=none;endFill=0;" edge="1" parent="1" source="d8VbLwfGK2NLZ984nXob-16" target="d8VbLwfGK2NLZ984nXob-4">
          <mxGeometry relative="1" as="geometry" />
        </mxCell>
        <mxCell id="d8VbLwfGK2NLZ984nXob-16" value="邮箱" style="ellipse;whiteSpace=wrap;html=1;" vertex="1" parent="1">
          <mxGeometry x="210" y="70" width="60" height="40" as="geometry" />
        </mxCell>
        <mxCell id="d8VbLwfGK2NLZ984nXob-20" style="rounded=0;orthogonalLoop=1;jettySize=auto;html=1;exitX=0.5;exitY=1;exitDx=0;exitDy=0;entryX=0.75;entryY=0;entryDx=0;entryDy=0;endArrow=none;endFill=0;" edge="1" parent="1" source="d8VbLwfGK2NLZ984nXob-19" target="d8VbLwfGK2NLZ984nXob-4">
          <mxGeometry relative="1" as="geometry" />
        </mxCell>
        <mxCell id="d8VbLwfGK2NLZ984nXob-19" value="是否通过审核" style="ellipse;whiteSpace=wrap;html=1;" vertex="1" parent="1">
          <mxGeometry x="294" y="70" width="60" height="40" as="geometry" />
        </mxCell>
        <mxCell id="d8VbLwfGK2NLZ984nXob-24" style="rounded=0;orthogonalLoop=1;jettySize=auto;html=1;exitX=0;exitY=1;exitDx=0;exitDy=0;entryX=1;entryY=0.25;entryDx=0;entryDy=0;endArrow=none;endFill=0;" edge="1" parent="1" source="d8VbLwfGK2NLZ984nXob-21" target="d8VbLwfGK2NLZ984nXob-4">
          <mxGeometry relative="1" as="geometry" />
        </mxCell>
        <mxCell id="d8VbLwfGK2NLZ984nXob-21" value="创建时间" style="ellipse;whiteSpace=wrap;html=1;" vertex="1" parent="1">
          <mxGeometry x="384" y="100" width="60" height="40" as="geometry" />
        </mxCell>
        <mxCell id="d8VbLwfGK2NLZ984nXob-25" style="rounded=0;orthogonalLoop=1;jettySize=auto;html=1;exitX=0;exitY=0.5;exitDx=0;exitDy=0;entryX=1;entryY=0.5;entryDx=0;entryDy=0;endArrow=none;endFill=0;" edge="1" parent="1" source="d8VbLwfGK2NLZ984nXob-23" target="d8VbLwfGK2NLZ984nXob-4">
          <mxGeometry relative="1" as="geometry" />
        </mxCell>
        <mxCell id="d8VbLwfGK2NLZ984nXob-23" value="更新时间" style="ellipse;whiteSpace=wrap;html=1;" vertex="1" parent="1">
          <mxGeometry x="410" y="170" width="60" height="40" as="geometry" />
        </mxCell>
        <mxCell id="d8VbLwfGK2NLZ984nXob-88" style="rounded=0;orthogonalLoop=1;jettySize=auto;html=1;exitX=0;exitY=0;exitDx=0;exitDy=0;entryX=0.5;entryY=1;entryDx=0;entryDy=0;endArrow=none;endFill=0;" edge="1" parent="1" source="d8VbLwfGK2NLZ984nXob-26" target="d8VbLwfGK2NLZ984nXob-4">
          <mxGeometry relative="1" as="geometry" />
        </mxCell>
        <mxCell id="d8VbLwfGK2NLZ984nXob-89" value="N" style="edgeLabel;html=1;align=center;verticalAlign=middle;resizable=0;points=[];" vertex="1" connectable="0" parent="d8VbLwfGK2NLZ984nXob-88">
          <mxGeometry x="-0.0548" y="-1" relative="1" as="geometry">
            <mxPoint as="offset" />
          </mxGeometry>
        </mxCell>
        <mxCell id="d8VbLwfGK2NLZ984nXob-26" value="修改信息" style="rhombus;whiteSpace=wrap;html=1;" vertex="1" parent="1">
          <mxGeometry x="340" y="320" width="70" height="50" as="geometry" />
        </mxCell>
        <mxCell id="d8VbLwfGK2NLZ984nXob-41" value="id" style="ellipse;whiteSpace=wrap;html=1;" vertex="1" parent="1">
          <mxGeometry x="610" y="60" width="60" height="40" as="geometry" />
        </mxCell>
        <mxCell id="d8VbLwfGK2NLZ984nXob-104" style="rounded=0;orthogonalLoop=1;jettySize=auto;html=1;exitX=0;exitY=1;exitDx=0;exitDy=0;entryX=1;entryY=0.5;entryDx=0;entryDy=0;endArrow=none;endFill=0;" edge="1" parent="1" source="d8VbLwfGK2NLZ984nXob-42" target="d8VbLwfGK2NLZ984nXob-102">
          <mxGeometry relative="1" as="geometry" />
        </mxCell>
        <mxCell id="d8VbLwfGK2NLZ984nXob-105" value="1" style="edgeLabel;html=1;align=center;verticalAlign=middle;resizable=0;points=[];" vertex="1" connectable="0" parent="d8VbLwfGK2NLZ984nXob-104">
          <mxGeometry x="-0.0291" y="-1" relative="1" as="geometry">
            <mxPoint as="offset" />
          </mxGeometry>
        </mxCell>
        <mxCell id="d8VbLwfGK2NLZ984nXob-42" value="教师" style="rounded=0;whiteSpace=wrap;html=1;" vertex="1" parent="1">
          <mxGeometry x="714" y="180" width="70" height="40" as="geometry" />
        </mxCell>
        <mxCell id="d8VbLwfGK2NLZ984nXob-43" style="rounded=0;orthogonalLoop=1;jettySize=auto;html=1;exitX=1;exitY=1;exitDx=0;exitDy=0;entryX=0;entryY=0.25;entryDx=0;entryDy=0;endArrow=none;endFill=0;" edge="1" parent="1" source="d8VbLwfGK2NLZ984nXob-44" target="d8VbLwfGK2NLZ984nXob-42">
          <mxGeometry relative="1" as="geometry">
            <mxPoint x="640" y="180" as="targetPoint" />
          </mxGeometry>
        </mxCell>
        <mxCell id="d8VbLwfGK2NLZ984nXob-44" value="姓名" style="ellipse;whiteSpace=wrap;html=1;" vertex="1" parent="1">
          <mxGeometry x="550" y="110" width="60" height="40" as="geometry" />
        </mxCell>
        <mxCell id="d8VbLwfGK2NLZ984nXob-45" style="rounded=0;orthogonalLoop=1;jettySize=auto;html=1;exitX=1;exitY=0.5;exitDx=0;exitDy=0;entryX=0;entryY=0.5;entryDx=0;entryDy=0;endArrow=none;endFill=0;" edge="1" parent="1" source="d8VbLwfGK2NLZ984nXob-46" target="d8VbLwfGK2NLZ984nXob-42">
          <mxGeometry relative="1" as="geometry">
            <mxPoint x="670" y="210" as="targetPoint" />
          </mxGeometry>
        </mxCell>
        <mxCell id="d8VbLwfGK2NLZ984nXob-46" value="密码" style="ellipse;whiteSpace=wrap;html=1;" vertex="1" parent="1">
          <mxGeometry x="540" y="170" width="60" height="40" as="geometry" />
        </mxCell>
        <mxCell id="d8VbLwfGK2NLZ984nXob-47" style="rounded=0;orthogonalLoop=1;jettySize=auto;html=1;exitX=1;exitY=1;exitDx=0;exitDy=0;entryX=0.25;entryY=0;entryDx=0;entryDy=0;endArrow=none;endFill=0;" edge="1" parent="1" source="d8VbLwfGK2NLZ984nXob-41" target="d8VbLwfGK2NLZ984nXob-42">
          <mxGeometry relative="1" as="geometry">
            <mxPoint x="760" y="100" as="targetPoint" />
          </mxGeometry>
        </mxCell>
        <mxCell id="d8VbLwfGK2NLZ984nXob-48" style="rounded=0;orthogonalLoop=1;jettySize=auto;html=1;exitX=0.5;exitY=1;exitDx=0;exitDy=0;entryX=0.5;entryY=0;entryDx=0;entryDy=0;endArrow=none;endFill=0;" edge="1" parent="1" source="d8VbLwfGK2NLZ984nXob-49" target="d8VbLwfGK2NLZ984nXob-42">
          <mxGeometry relative="1" as="geometry" />
        </mxCell>
        <mxCell id="d8VbLwfGK2NLZ984nXob-49" value="邮箱" style="ellipse;whiteSpace=wrap;html=1;" vertex="1" parent="1">
          <mxGeometry x="700" y="50" width="60" height="40" as="geometry" />
        </mxCell>
        <mxCell id="d8VbLwfGK2NLZ984nXob-50" style="rounded=0;orthogonalLoop=1;jettySize=auto;html=1;exitX=0.5;exitY=1;exitDx=0;exitDy=0;entryX=0.75;entryY=0;entryDx=0;entryDy=0;endArrow=none;endFill=0;" edge="1" parent="1" source="d8VbLwfGK2NLZ984nXob-51" target="d8VbLwfGK2NLZ984nXob-42">
          <mxGeometry relative="1" as="geometry" />
        </mxCell>
        <mxCell id="d8VbLwfGK2NLZ984nXob-51" value="是否通过审核" style="ellipse;whiteSpace=wrap;html=1;" vertex="1" parent="1">
          <mxGeometry x="784" y="50" width="60" height="40" as="geometry" />
        </mxCell>
        <mxCell id="d8VbLwfGK2NLZ984nXob-52" style="rounded=0;orthogonalLoop=1;jettySize=auto;html=1;exitX=0;exitY=1;exitDx=0;exitDy=0;entryX=1;entryY=0.25;entryDx=0;entryDy=0;endArrow=none;endFill=0;" edge="1" parent="1" source="d8VbLwfGK2NLZ984nXob-53" target="d8VbLwfGK2NLZ984nXob-42">
          <mxGeometry relative="1" as="geometry" />
        </mxCell>
        <mxCell id="d8VbLwfGK2NLZ984nXob-53" value="创建时间" style="ellipse;whiteSpace=wrap;html=1;" vertex="1" parent="1">
          <mxGeometry x="874" y="80" width="60" height="40" as="geometry" />
        </mxCell>
        <mxCell id="d8VbLwfGK2NLZ984nXob-54" style="rounded=0;orthogonalLoop=1;jettySize=auto;html=1;exitX=0;exitY=0.5;exitDx=0;exitDy=0;entryX=1;entryY=0.5;entryDx=0;entryDy=0;endArrow=none;endFill=0;" edge="1" parent="1" source="d8VbLwfGK2NLZ984nXob-55" target="d8VbLwfGK2NLZ984nXob-42">
          <mxGeometry relative="1" as="geometry" />
        </mxCell>
        <mxCell id="d8VbLwfGK2NLZ984nXob-55" value="更新时间" style="ellipse;whiteSpace=wrap;html=1;" vertex="1" parent="1">
          <mxGeometry x="900" y="150" width="60" height="40" as="geometry" />
        </mxCell>
        <mxCell id="d8VbLwfGK2NLZ984nXob-68" value="id" style="ellipse;whiteSpace=wrap;html=1;" vertex="1" parent="1">
          <mxGeometry x="570" y="565" width="60" height="40" as="geometry" />
        </mxCell>
        <mxCell id="d8VbLwfGK2NLZ984nXob-86" style="rounded=0;orthogonalLoop=1;jettySize=auto;html=1;exitX=0;exitY=0;exitDx=0;exitDy=0;entryX=1;entryY=1;entryDx=0;entryDy=0;endArrow=none;endFill=0;" edge="1" parent="1" source="d8VbLwfGK2NLZ984nXob-69" target="d8VbLwfGK2NLZ984nXob-26">
          <mxGeometry relative="1" as="geometry" />
        </mxCell>
        <mxCell id="d8VbLwfGK2NLZ984nXob-87" value="1" style="edgeLabel;html=1;align=center;verticalAlign=middle;resizable=0;points=[];" vertex="1" connectable="0" parent="d8VbLwfGK2NLZ984nXob-86">
          <mxGeometry x="0.1116" y="-3" relative="1" as="geometry">
            <mxPoint as="offset" />
          </mxGeometry>
        </mxCell>
        <mxCell id="d8VbLwfGK2NLZ984nXob-96" style="rounded=0;orthogonalLoop=1;jettySize=auto;html=1;exitX=1;exitY=0.5;exitDx=0;exitDy=0;entryX=0;entryY=1;entryDx=0;entryDy=0;endArrow=none;endFill=0;" edge="1" parent="1" source="d8VbLwfGK2NLZ984nXob-69" target="d8VbLwfGK2NLZ984nXob-95">
          <mxGeometry relative="1" as="geometry" />
        </mxCell>
        <mxCell id="d8VbLwfGK2NLZ984nXob-99" value="1" style="edgeLabel;html=1;align=center;verticalAlign=middle;resizable=0;points=[];" vertex="1" connectable="0" parent="d8VbLwfGK2NLZ984nXob-96">
          <mxGeometry x="0.0231" y="1" relative="1" as="geometry">
            <mxPoint as="offset" />
          </mxGeometry>
        </mxCell>
        <mxCell id="d8VbLwfGK2NLZ984nXob-109" style="rounded=0;orthogonalLoop=1;jettySize=auto;html=1;exitX=0;exitY=0.5;exitDx=0;exitDy=0;endArrow=none;endFill=0;" edge="1" parent="1" source="d8VbLwfGK2NLZ984nXob-69" target="d8VbLwfGK2NLZ984nXob-110">
          <mxGeometry relative="1" as="geometry">
            <mxPoint x="230" y="390" as="targetPoint" />
          </mxGeometry>
        </mxCell>
        <mxCell id="d8VbLwfGK2NLZ984nXob-113" value="1" style="edgeLabel;html=1;align=center;verticalAlign=middle;resizable=0;points=[];" vertex="1" connectable="0" parent="d8VbLwfGK2NLZ984nXob-109">
          <mxGeometry x="0.0652" y="3" relative="1" as="geometry">
            <mxPoint as="offset" />
          </mxGeometry>
        </mxCell>
        <mxCell id="d8VbLwfGK2NLZ984nXob-115" style="rounded=0;orthogonalLoop=1;jettySize=auto;html=1;exitX=1;exitY=0;exitDx=0;exitDy=0;entryX=0;entryY=1;entryDx=0;entryDy=0;endArrow=none;endFill=0;" edge="1" parent="1" source="d8VbLwfGK2NLZ984nXob-69" target="d8VbLwfGK2NLZ984nXob-116">
          <mxGeometry relative="1" as="geometry">
            <mxPoint x="610" y="360" as="targetPoint" />
          </mxGeometry>
        </mxCell>
        <mxCell id="d8VbLwfGK2NLZ984nXob-119" value="1" style="edgeLabel;html=1;align=center;verticalAlign=middle;resizable=0;points=[];" vertex="1" connectable="0" parent="d8VbLwfGK2NLZ984nXob-115">
          <mxGeometry x="0.1569" y="-2" relative="1" as="geometry">
            <mxPoint as="offset" />
          </mxGeometry>
        </mxCell>
        <mxCell id="d8VbLwfGK2NLZ984nXob-69" value="管理员" style="rounded=0;whiteSpace=wrap;html=1;" vertex="1" parent="1">
          <mxGeometry x="480" y="440" width="70" height="40" as="geometry" />
        </mxCell>
        <mxCell id="d8VbLwfGK2NLZ984nXob-70" style="rounded=0;orthogonalLoop=1;jettySize=auto;html=1;exitX=1;exitY=0;exitDx=0;exitDy=0;entryX=0;entryY=0.5;entryDx=0;entryDy=0;endArrow=none;endFill=0;" edge="1" parent="1" source="d8VbLwfGK2NLZ984nXob-71" target="d8VbLwfGK2NLZ984nXob-69">
          <mxGeometry relative="1" as="geometry">
            <mxPoint x="394" y="420" as="targetPoint" />
          </mxGeometry>
        </mxCell>
        <mxCell id="d8VbLwfGK2NLZ984nXob-71" value="姓名" style="ellipse;whiteSpace=wrap;html=1;" vertex="1" parent="1">
          <mxGeometry x="320" y="560" width="60" height="40" as="geometry" />
        </mxCell>
        <mxCell id="d8VbLwfGK2NLZ984nXob-72" style="rounded=0;orthogonalLoop=1;jettySize=auto;html=1;entryX=0.25;entryY=1;entryDx=0;entryDy=0;endArrow=none;endFill=0;" edge="1" parent="1" source="d8VbLwfGK2NLZ984nXob-73" target="d8VbLwfGK2NLZ984nXob-69">
          <mxGeometry relative="1" as="geometry">
            <mxPoint x="424" y="450" as="targetPoint" />
          </mxGeometry>
        </mxCell>
        <mxCell id="d8VbLwfGK2NLZ984nXob-73" value="密码" style="ellipse;whiteSpace=wrap;html=1;" vertex="1" parent="1">
          <mxGeometry x="430" y="565" width="60" height="40" as="geometry" />
        </mxCell>
        <mxCell id="d8VbLwfGK2NLZ984nXob-74" style="rounded=0;orthogonalLoop=1;jettySize=auto;html=1;entryX=0.75;entryY=1;entryDx=0;entryDy=0;endArrow=none;endFill=0;" edge="1" parent="1" source="d8VbLwfGK2NLZ984nXob-68" target="d8VbLwfGK2NLZ984nXob-69">
          <mxGeometry relative="1" as="geometry">
            <mxPoint x="514" y="340" as="targetPoint" />
          </mxGeometry>
        </mxCell>
        <mxCell id="d8VbLwfGK2NLZ984nXob-75" style="rounded=0;orthogonalLoop=1;jettySize=auto;html=1;exitX=0;exitY=0;exitDx=0;exitDy=0;entryX=1;entryY=0.5;entryDx=0;entryDy=0;endArrow=none;endFill=0;" edge="1" parent="1" source="d8VbLwfGK2NLZ984nXob-76" target="d8VbLwfGK2NLZ984nXob-69">
          <mxGeometry relative="1" as="geometry" />
        </mxCell>
        <mxCell id="d8VbLwfGK2NLZ984nXob-76" value="邮箱" style="ellipse;whiteSpace=wrap;html=1;" vertex="1" parent="1">
          <mxGeometry x="660" y="560" width="60" height="40" as="geometry" />
        </mxCell>
        <mxCell id="d8VbLwfGK2NLZ984nXob-100" style="rounded=0;orthogonalLoop=1;jettySize=auto;html=1;entryX=0.75;entryY=1;entryDx=0;entryDy=0;endArrow=none;endFill=0;" edge="1" parent="1" source="d8VbLwfGK2NLZ984nXob-95" target="d8VbLwfGK2NLZ984nXob-42">
          <mxGeometry relative="1" as="geometry">
            <mxPoint x="650" y="323" as="sourcePoint" />
          </mxGeometry>
        </mxCell>
        <mxCell id="d8VbLwfGK2NLZ984nXob-101" value="N" style="edgeLabel;html=1;align=center;verticalAlign=middle;resizable=0;points=[];" vertex="1" connectable="0" parent="d8VbLwfGK2NLZ984nXob-100">
          <mxGeometry x="0.1094" y="-2" relative="1" as="geometry">
            <mxPoint as="offset" />
          </mxGeometry>
        </mxCell>
        <mxCell id="d8VbLwfGK2NLZ984nXob-95" value="修改信息" style="rhombus;whiteSpace=wrap;html=1;" vertex="1" parent="1">
          <mxGeometry x="740" y="380" width="70" height="50" as="geometry" />
        </mxCell>
        <mxCell id="d8VbLwfGK2NLZ984nXob-106" style="rounded=0;orthogonalLoop=1;jettySize=auto;html=1;exitX=0;exitY=0.5;exitDx=0;exitDy=0;entryX=1;entryY=0.75;entryDx=0;entryDy=0;endArrow=none;endFill=0;" edge="1" parent="1" source="d8VbLwfGK2NLZ984nXob-102" target="d8VbLwfGK2NLZ984nXob-4">
          <mxGeometry relative="1" as="geometry" />
        </mxCell>
        <mxCell id="d8VbLwfGK2NLZ984nXob-108" value="N" style="edgeLabel;html=1;align=center;verticalAlign=middle;resizable=0;points=[];" vertex="1" connectable="0" parent="d8VbLwfGK2NLZ984nXob-106">
          <mxGeometry x="0.0018" y="-2" relative="1" as="geometry">
            <mxPoint as="offset" />
          </mxGeometry>
        </mxCell>
        <mxCell id="d8VbLwfGK2NLZ984nXob-137" style="rounded=0;orthogonalLoop=1;jettySize=auto;html=1;exitX=0.5;exitY=0;exitDx=0;exitDy=0;entryX=0.5;entryY=1;entryDx=0;entryDy=0;endArrow=none;endFill=0;" edge="1" parent="1" source="d8VbLwfGK2NLZ984nXob-102" target="d8VbLwfGK2NLZ984nXob-122">
          <mxGeometry relative="1" as="geometry" />
        </mxCell>
        <mxCell id="d8VbLwfGK2NLZ984nXob-138" value="1" style="edgeLabel;html=1;align=center;verticalAlign=middle;resizable=0;points=[];" vertex="1" connectable="0" parent="d8VbLwfGK2NLZ984nXob-137">
          <mxGeometry x="-0.0098" y="-1" relative="1" as="geometry">
            <mxPoint as="offset" />
          </mxGeometry>
        </mxCell>
        <mxCell id="d8VbLwfGK2NLZ984nXob-102" value="发起签到" style="rhombus;whiteSpace=wrap;html=1;" vertex="1" parent="1">
          <mxGeometry x="480" y="250" width="70" height="50" as="geometry" />
        </mxCell>
        <mxCell id="d8VbLwfGK2NLZ984nXob-111" style="rounded=0;orthogonalLoop=1;jettySize=auto;html=1;exitX=0.5;exitY=0;exitDx=0;exitDy=0;endArrow=none;endFill=0;" edge="1" parent="1" source="d8VbLwfGK2NLZ984nXob-110" target="d8VbLwfGK2NLZ984nXob-4">
          <mxGeometry relative="1" as="geometry" />
        </mxCell>
        <mxCell id="d8VbLwfGK2NLZ984nXob-114" value="1" style="edgeLabel;html=1;align=center;verticalAlign=middle;resizable=0;points=[];" vertex="1" connectable="0" parent="d8VbLwfGK2NLZ984nXob-111">
          <mxGeometry x="0.078" y="-1" relative="1" as="geometry">
            <mxPoint as="offset" />
          </mxGeometry>
        </mxCell>
        <mxCell id="d8VbLwfGK2NLZ984nXob-110" value="审核" style="rhombus;whiteSpace=wrap;html=1;" vertex="1" parent="1">
          <mxGeometry x="150" y="370" width="70" height="50" as="geometry" />
        </mxCell>
        <mxCell id="d8VbLwfGK2NLZ984nXob-117" style="rounded=0;orthogonalLoop=1;jettySize=auto;html=1;exitX=1;exitY=0;exitDx=0;exitDy=0;entryX=0.25;entryY=1;entryDx=0;entryDy=0;endArrow=none;endFill=0;" edge="1" parent="1" source="d8VbLwfGK2NLZ984nXob-116" target="d8VbLwfGK2NLZ984nXob-42">
          <mxGeometry relative="1" as="geometry" />
        </mxCell>
        <mxCell id="d8VbLwfGK2NLZ984nXob-120" value="1" style="edgeLabel;html=1;align=center;verticalAlign=middle;resizable=0;points=[];" vertex="1" connectable="0" parent="d8VbLwfGK2NLZ984nXob-117">
          <mxGeometry x="0.0066" relative="1" as="geometry">
            <mxPoint as="offset" />
          </mxGeometry>
        </mxCell>
        <mxCell id="d8VbLwfGK2NLZ984nXob-116" value="审核" style="rhombus;whiteSpace=wrap;html=1;" vertex="1" parent="1">
          <mxGeometry x="610" y="310" width="70" height="50" as="geometry" />
        </mxCell>
        <mxCell id="d8VbLwfGK2NLZ984nXob-122" value="签到记录" style="rounded=0;whiteSpace=wrap;html=1;" vertex="1" parent="1">
          <mxGeometry x="470" width="70" height="40" as="geometry" />
        </mxCell>
        <mxCell id="d8VbLwfGK2NLZ984nXob-129" style="rounded=0;orthogonalLoop=1;jettySize=auto;html=1;exitX=1;exitY=1;exitDx=0;exitDy=0;endArrow=none;endFill=0;entryX=0;entryY=0.5;entryDx=0;entryDy=0;" edge="1" parent="1" source="d8VbLwfGK2NLZ984nXob-126" target="d8VbLwfGK2NLZ984nXob-122">
          <mxGeometry relative="1" as="geometry" />
        </mxCell>
        <mxCell id="d8VbLwfGK2NLZ984nXob-126" value="学生id" style="ellipse;whiteSpace=wrap;html=1;" vertex="1" parent="1">
          <mxGeometry x="360" y="-50" width="60" height="40" as="geometry" />
        </mxCell>
        <mxCell id="d8VbLwfGK2NLZ984nXob-130" style="rounded=0;orthogonalLoop=1;jettySize=auto;html=1;exitX=0.5;exitY=1;exitDx=0;exitDy=0;endArrow=none;endFill=0;" edge="1" parent="1" source="d8VbLwfGK2NLZ984nXob-127" target="d8VbLwfGK2NLZ984nXob-122">
          <mxGeometry relative="1" as="geometry" />
        </mxCell>
        <mxCell id="d8VbLwfGK2NLZ984nXob-127" value="教师id" style="ellipse;whiteSpace=wrap;html=1;" vertex="1" parent="1">
          <mxGeometry x="410" y="-90" width="60" height="40" as="geometry" />
        </mxCell>
        <mxCell id="d8VbLwfGK2NLZ984nXob-132" style="rounded=0;orthogonalLoop=1;jettySize=auto;html=1;exitX=0.5;exitY=1;exitDx=0;exitDy=0;entryX=0.5;entryY=0;entryDx=0;entryDy=0;endArrow=none;endFill=0;" edge="1" parent="1" source="d8VbLwfGK2NLZ984nXob-131" target="d8VbLwfGK2NLZ984nXob-122">
          <mxGeometry relative="1" as="geometry" />
        </mxCell>
        <mxCell id="d8VbLwfGK2NLZ984nXob-131" value="是否签到" style="ellipse;whiteSpace=wrap;html=1;" vertex="1" parent="1">
          <mxGeometry x="485" y="-100" width="60" height="40" as="geometry" />
        </mxCell>
        <mxCell id="d8VbLwfGK2NLZ984nXob-134" style="rounded=0;orthogonalLoop=1;jettySize=auto;html=1;entryX=0.75;entryY=0;entryDx=0;entryDy=0;endArrow=none;endFill=0;" edge="1" parent="1" source="d8VbLwfGK2NLZ984nXob-133" target="d8VbLwfGK2NLZ984nXob-122">
          <mxGeometry relative="1" as="geometry" />
        </mxCell>
        <mxCell id="d8VbLwfGK2NLZ984nXob-133" value="签到时间" style="ellipse;whiteSpace=wrap;html=1;" vertex="1" parent="1">
          <mxGeometry x="560" y="-90" width="60" height="40" as="geometry" />
        </mxCell>
        <mxCell id="d8VbLwfGK2NLZ984nXob-135" value="是否通过审核" style="ellipse;whiteSpace=wrap;html=1;" vertex="1" parent="1">
          <mxGeometry x="615" y="-50" width="60" height="40" as="geometry" />
        </mxCell>
        <mxCell id="d8VbLwfGK2NLZ984nXob-136" style="rounded=0;orthogonalLoop=1;jettySize=auto;html=1;exitX=1;exitY=0.5;exitDx=0;exitDy=0;entryX=0.063;entryY=0.68;entryDx=0;entryDy=0;entryPerimeter=0;endArrow=none;endFill=0;" edge="1" parent="1" source="d8VbLwfGK2NLZ984nXob-122" target="d8VbLwfGK2NLZ984nXob-135">
          <mxGeometry relative="1" as="geometry" />
        </mxCell>
      </root>
    </mxGraphModel>
  </diagram>
</mxfile>
